<svg xmlns="http://www.w3.org/2000/svg" viewBox="153 137 951 951" role="img" aria-label="Branch favicon">
  <g transform="translate(0 1254) scale(0.1 -0.1)">
    <path d="M7224 9345 c0 -93 2 -133 3 -88 2 45 2 122 0 170 -1 48 -3 12 -3 -82z" fill="#BFCCA7"/>
    <path d="M6230 7855 c0 -115 3 -132 31 -213 284 -798 329 -1196 200 -1772 -69 -308 -271 -880 -271 -767 0 53 -204 412 -338 596 -214 293 -643 725 -812 819 -36 19 -106 59 -157 88 -92 52 -92 52 -71 10 87 -170 124 -224 259 -366 775 -819 999 -1425 817 -2207 -26 -112 -26 -113 -73 -15 -151 318 -426 565 -750 671 -106 34 -107 34 -122 -29 -16 -69 -13 -75 34 -90 498 -160 852 -814 683 -1263 -169 -450 -366 -812 -640 -1175 -129 -172 -152 -233 -119 -319 42 -111 215 -155 353 -90 275 128 642 825 936 1778 84 271 110 331 206 491 185 304 429 544 832 816 173 116 173 116 232 212 33 52 69 110 81 128 21 32 21 32 -7 17 -16 -8 -113 -54 -215 -103 -306 -146 -522 -279 -757 -464 -63 -49 -116 -87 -119 -85 -18 19 196 768 312 1088 117 322 194 467 595 1114 90 145 294 496 348 599 26 50 39 112 21 101 -4 -3 -22 13 -38 35 -33 46 -36 44 -146 -115 -56 -80 -188 -256 -396 -527 -79 -102 -182 -236 -228 -297 -88 -114 -101 -121 -101 -52 -1 283 -233 964 -440 1291 -26 41 -66 108 -89 148 -23 39 -44 72 -46 72 -3 0 -5 -56 -5 -125z" fill="#5E4024"/>
    <path d="M6368 11053 c-330 -394 -603 -885 -722 -1301 -201 -700 -14 -1425 500 -1947 l79 -80 5 130 c3 72 2 146 -2 165 -65 337 -2 891 140 1236 77 186 150 321 121 222 -116 -390 -162 -1030 -100 -1383 21 -121 69 -336 76 -343 2 -2 57 49 123 114 728 731 833 1749 277 2700 -135 230 -383 564 -420 564 -7 0 -41 -35 -77 -77z" fill="#558B2A"/>
    <path d="M2897 8753 c-15 -14 0 -159 39 -388 207 -1206 865 -1897 1856 -1952 137 -8 137 -8 114 32 -13 22 -43 76 -67 120 -24 44 -71 114 -104 156 -33 42 -91 116 -130 165 -38 49 -173 220 -300 379 -278 349 -429 542 -434 557 -25 73 471 -407 828 -802 266 -293 382 -413 391 -403 16 16 30 181 30 341 0 885 -574 1534 -1530 1730 -262 54 -667 92 -693 65z" fill="#558B2A"/>
    <path d="M7770 7579 c-15 -11 -18 -17 -7 -13 9 3 17 1 17 -4 0 -6 -9 -9 -21 -7 -18 4 -119 -49 -119 -63 0 -3 3 -2 6 1 4 3 20 -12 36 -34 17 -23 33 -37 40 -33 8 5 9 2 5 -9 -3 -10 -2 -17 3 -17 4 0 11 14 15 31 4 16 18 57 31 91 29 71 28 84 -6 57z" fill="#558B2A"/>
    <path d="M8480 6145 c-509 -84 -901 -434 -1036 -924 -28 -102 -29 -100 45 -68 32 14 62 23 67 19 4 -4 4 -2 1 4 -10 17 196 147 354 223 263 126 429 172 714 196 93 8 77 -6 -50 -44 -319 -95 -692 -298 -959 -523 -120 -100 -120 -101 -59 -131 370 -186 833 -183 1214 9 323 161 645 486 872 880 62 107 63 103 -47 157 -357 173 -803 254 -1116 202z" fill="#558B2A"/>
    <path d="M8245 8826 c-566 -111 -878 -717 -639 -1243 39 -86 36 -85 125 -28 76 49 78 48 48 -27 -53 -134 -53 -138 -6 -186 288 -299 767 -350 1107 -119 341 232 477 692 319 1073 -159 381 -564 606 -954 530z m287 -406 c345 -106 452 -540 197 -802 -252 -258 -702 -135 -794 217 -93 358 249 693 597 585z" fill="#87AF3F"/>
    <path d="M4055 5606 c-625 -125 -855 -900 -394 -1331 419 -393 1075 -220 1258 330 180 543 -310 1111 -864 1001z m298 -394 c337 -157 304 -652 -50 -762 -332 -102 -626 245 -479 566 90 197 334 288 529 196z" fill="#87AF3F"/>
  </g>
</svg>
