<svg xmlns="http://www.w3.org/2000/svg" viewBox="153 137 951 951" role="img" aria-label="Branch favicon">
  <g transform="translate(0 1254) scale(0.1 -0.1)" fill="currentColor">
    <path d="M6353 11045 c-981 -1186 -1057 -2370 -210 -3249 86 -90 86 -90 147 -260 310 -861 304 -1412 -22 -2267 l-64 -167 -71 147 c-188 385 -461 731 -864 1095 -105 95 -182 155 -235 185 -250 140 -249 139 -331 246 -43 55 -174 222 -293 370 -363 454 -513 647 -491 636 86 -46 469 -428 848 -847 233 -257 308 -334 321 -334 41 0 60 421 27 630 -142 912 -890 1471 -2057 1536 -200 11 -192 21 -163 -211 170 -1321 855 -2096 1898 -2151 128 -7 128 -7 261 -148 736 -779 977 -1358 856 -2061 -41 -242 -45 -248 -99 -142 -175 349 -447 570 -838 683 -9 2 -13 34 -13 111 -1 719 -898 1049 -1360 500 -435 -516 -82 -1283 590 -1282 316 1 551 147 688 427 55 112 38 109 191 37 377 -178 599 -522 618 -959 5 -135 5 -135 -45 -270 -163 -439 -382 -837 -652 -1185 -150 -193 -148 -317 5 -398 249 -132 565 195 884 916 131 296 209 514 362 1017 128 420 458 805 1005 1171 150 100 165 112 200 171 103 172 132 205 244 275 274 173 679 314 893 313 38 -1 32 -4 -58 -34 -357 -119 -730 -334 -977 -565 -62 -57 -61 -62 20 -99 755 -347 1548 -7 2079 892 70 119 71 117 -34 170 -460 229 -991 287 -1378 149 -394 -141 -722 -508 -815 -913 -13 -55 -13 -55 -128 -110 -262 -125 -502 -273 -720 -443 -67 -53 -122 -94 -122 -91 0 43 164 626 249 884 143 433 235 617 586 1181 121 193 308 512 399 682 l48 88 63 -60 c473 -442 1234 -246 1433 369 215 662 -375 1307 -1043 1139 -531 -133 -824 -764 -580 -1248 38 -77 29 -93 -384 -632 -108 -140 -239 -312 -291 -381 -100 -132 -110 -140 -110 -80 -1 278 -238 962 -450 1297 -147 232 -153 257 -154 590 -1 293 33 510 119 770 39 120 142 352 130 295 -139 -663 -151 -1044 -48 -1515 19 -88 38 -164 43 -168 22 -24 302 282 421 462 552 832 445 1840 -292 2776 -149 189 -133 185 -236 60z m2195 -2636 c335 -116 423 -558 162 -803 -203 -190 -545 -149 -701 83 -252 376 116 867 539 720z m-4196 -3203 c397 -190 255 -783 -183 -764 -406 18 -521 570 -159 758 94 49 247 52 342 6z"/>
  </g>
</svg>
