<svg xmlns="http://www.w3.org/2000/svg" viewBox="0 0 24 24" width="200" height="200" role="img" aria-label="Flight Git takeoff icon">
  <g fill="currentColor" transform="translate(0 -2.2)">
    <path d="M21.949 10.1118C22.1634 10.912 21.6886 11.7345 20.8884 11.9489L5.2218 16.1467C4.77856 16.2655 4.31138 16.0674 4.08866 15.6662L1.46582 10.9415L2.91471 10.5533L5.3825 12.9979L10.4778 11.6326L5.96728 4.55896L7.89913 4.04132L14.8505 10.4609L20.1119 9.05113C20.9121 8.83671 21.7346 9.31159 21.949 10.1118Z"/>
  </g>

  <g fill="none" stroke="currentColor" stroke-width="1.8" stroke-linecap="round" stroke-linejoin="round">
    <path d="M8.25 16.78L17.26 14.72"/>
    <path d="M17.25 14.75C15.9 17.2 17.1 19.05 14.35 19.45"/>
    <circle cx="6" cy="17.3" r="2.25"/>
    <circle cx="19.5" cy="14.2" r="2.25"/>
    <circle cx="12.2" cy="20.9" r="2.25"/>
  </g>
</svg>
